<svg xmlns="http://www.w3.org/2000/svg" viewBox="0 0 30 30"><path d="M18.1 16c-.7 0-1.3.8-1.3 1.8s.6 1.8 1.3 1.8c.7 0 1.3-.8 1.3-1.8s-.6-1.8-1.3-1.8zm4.5-4.6c.1-.4.1-2.4-.6-4.3 0 0-1.8.2-4.5 2-.6-.2-1.5-.2-2.5-.2s-1.9.1-2.5.2C9.8 7.3 8 7.1 8 7.1c-.8 2-.8 4-.6 4.4-.9 1-1.5 2.2-1.5 3.8 0 7.1 5.9 7.2 7.3 7.2h3.4c1.5 0 7.3-.1 7.3-7.2.1-1.7-.4-2.9-1.3-3.9zM15 21.5c-3.8 0-6.6-.4-6.6-4 0-.9.3-1.7 1-2.3 1.2-1.1 3.2-.5 5.6-.5 2.3 0 4.4-.6 5.6.5.7.7 1 1.5 1 2.3 0 3.6-2.9 4-6.6 4zM11.9 16c-.7 0-1.3.8-1.3 1.8s.6 1.8 1.3 1.8c.7 0 1.3-.8 1.3-1.8s-.6-1.8-1.3-1.8z"/></svg>
